<svg viewBox="0 0 512 512" xmlns="http://www.w3.org/2000/svg"><path d="m437 271h-257v-15c0-8.269531 6.730469-15 15-15h121c24.8125 0 45-20.1875 45-45v-45h60v-151h-150v151h60v45c0 8.269531-6.730469 15-15 15h-121c-24.8125 0-45 20.1875-45 45v75 30h-8.070312c5.121093-8.832031 8.070312-19.074219 8.070312-30 0-33.085938-26.914062-60-60-60s-60 26.914062-60 60c0 10.925781 2.949219 21.167969 8.070312 30h-8.070312v-180h-30v331h30v-61h452v61h30c0-15.253906 0-149.300781 0-166 0-41.355469-33.644531-75-75-75zm-136-241h90v91h-90zm-241 301c0-16.542969 13.457031-30 30-30s30 13.457031 30 30-13.457031 30-30 30-30-13.457031-30-30zm422 90h-452v-30h452zm-302-60v-60h257c24.8125 0 45 20.1875 45 45v15zm0 0"/></svg>