<?xml version="1.0" encoding="iso-8859-1"?>
<!-- Generator: Adobe Illustrator 19.0.0, SVG Export Plug-In . SVG Version: 6.00 Build 0)  -->
<svg version="1.1" id="Capa_1" xmlns="http://www.w3.org/2000/svg" xmlns:xlink="http://www.w3.org/1999/xlink" x="0px" y="0px"
	 viewBox="0 0 512 512" style="enable-background:new 0 0 512 512;" xml:space="preserve">
<g>
	<g>
		<path d="M233.624,313.191H93.56c-4.142,0-7.5,3.358-7.5,7.5c0,4.142,3.358,7.5,7.5,7.5h140.063c4.142,0,7.5-3.358,7.5-7.5
			C241.124,316.549,237.765,313.191,233.624,313.191z"/>
	</g>
</g>
<g>
	<g>
		<path d="M233.624,284.484h-89.124c-4.142,0-7.5,3.358-7.5,7.5c0,4.142,3.358,7.5,7.5,7.5h89.124c4.142,0,7.5-3.358,7.5-7.5
			C241.124,287.842,237.765,284.484,233.624,284.484z"/>
	</g>
</g>
<g>
	<g>
		<path d="M109.249,284.484H93.56c-4.142,0-7.5,3.358-7.5,7.5c0,4.142,3.358,7.5,7.5,7.5h15.689c4.142,0,7.5-3.358,7.5-7.5
			C116.749,287.842,113.392,284.484,109.249,284.484z"/>
	</g>
</g>
<g>
	<g>
		<path d="M280.42,146.25c-4.142,0-7.5,3.358-7.5,7.5v194.838c0,2.835-1.685,5.384-4.297,6.497
			c-20.231,8.618-41.641,12.988-63.633,12.988h-82.795c-21.994,0-43.404-4.371-63.637-12.99c-2.609-1.111-4.295-3.661-4.295-6.497
			V107.532c0-2.943,1.377-5.723,3.684-7.436c22.968-17.058,51.375-26.452,79.987-26.452h51.315c28.612,0,57.018,9.394,79.986,26.452
			c2.307,1.713,3.684,4.493,3.684,7.436V119c0,4.142,3.358,7.5,7.5,7.5c4.142,0,7.5-3.358,7.5-7.5v-11.468
			c0-7.667-3.641-14.948-9.741-19.478c-25.536-18.965-57.119-29.41-88.93-29.41h-51.315c-31.812,0-63.395,10.445-88.931,29.41
			c-6.1,4.53-9.741,11.812-9.741,19.478v241.055c0,8.859,5.267,16.826,13.417,20.297c22.101,9.416,45.489,14.19,69.515,14.19h82.795
			c24.024,0,47.411-4.773,69.515-14.19c8.152-3.471,13.417-11.438,13.417-20.296V153.75
			C287.92,149.608,284.561,146.25,280.42,146.25z"/>
	</g>
</g>
<g>
	<g>
		<path d="M169.027,127.753c-1.416-1.489-3.381-2.332-5.436-2.332s-4.02,0.843-5.436,2.332
			c-1.688,1.776-41.344,43.901-41.344,80.083c0,24.235,20.985,43.951,46.78,43.951c25.795,0,46.78-19.716,46.78-43.951
			C210.371,171.654,170.715,129.529,169.027,127.753z M163.592,236.787c-17.524,0-31.78-12.987-31.78-28.951
			c0-23.028,21.446-51.289,31.78-63.568c10.333,12.279,31.78,40.54,31.78,63.568C195.372,223.8,181.116,236.787,163.592,236.787z"/>
	</g>
</g>
<g>
	<g>
		<path d="M485.499,174.841v-15.79c0-29.369-23.894-53.263-53.263-53.263c-29.369,0-53.263,23.894-53.263,53.263V455.08
			c0,23.115-18.805,41.92-41.92,41.92h-58.827c-21.788,0-39.74-16.711-41.73-37.988h2.743c7.71,0,13.983-6.273,13.983-13.984v-35.73
			l32.584-13.88c18.804-8.01,30.954-26.392,30.954-46.831V77.729c0-16.769-8.042-32.742-21.514-42.727
			C264.798,12.431,227.152,0,189.249,0h-1.251h-48.811h-1.252C100.03,0,62.387,12.431,31.936,35.002
			C18.465,44.987,10.422,60.96,10.422,77.729v270.858c0,20.439,12.15,38.821,30.954,46.831l32.764,13.957v10.17
			c0,7.711,6.273,13.984,13.984,13.984h21.894c7.711,0,13.984-6.273,13.984-13.984v-7.63h79.361v33.113
			c0,7.711,6.273,13.984,13.983,13.984h4.112C223.486,488.569,248.164,512,278.228,512h58.827c31.386,0,56.92-25.534,56.92-56.92
			V159.051c0-21.098,17.165-38.263,38.263-38.263c21.098,0,38.263,17.165,38.263,38.263v15.864
			c-8.701,1.096-15.457,8.526-15.457,17.519v30.004c0,8.993,6.756,16.422,15.457,17.519V260c0,4.142,3.358,7.5,7.5,7.5
			c4.142,0,7.5-3.358,7.5-7.5v-19.97c8.999-0.811,16.077-8.386,16.077-17.592v-30.004
			C501.577,183.227,494.499,175.652,485.499,174.841z M146.686,15h33.811v2.323c0,4.153-3.379,7.532-7.533,7.532h-18.746
			c-4.153,0-7.532-3.379-7.532-7.532V15z M218.363,444.012v-39.597c0-4.142-3.358-7.5-7.5-7.5h-94.361c-4.142,0-7.5,3.358-7.5,7.5
			v14.114H89.14v-14.114c0-3.167-1.967-5.875-4.743-6.975l-37.142-15.822c-13.263-5.65-21.833-18.615-21.833-33.031V77.729
			c0-12.04,5.774-23.507,15.447-30.676c26.21-19.428,58.24-30.65,90.817-31.928v2.198c0,12.424,10.108,22.532,22.532,22.532h18.746
			c12.425,0,22.533-10.108,22.533-22.532v-2.198c32.577,1.278,64.608,12.499,90.817,31.928c9.672,7.169,15.446,18.637,15.446,30.676
			v270.858c0,14.416-8.57,27.381-21.833,33.031l-37.145,15.823c-2.766,1.178-4.561,3.894-4.561,6.9v39.671H218.363z
			 M486.577,222.438c0,1.474-1.2,2.673-2.674,2.673h-11.186c-1.474,0-2.674-1.199-2.674-2.673v-30.004
			c0-1.474,1.2-2.674,2.674-2.674h11.186c1.474,0,2.674,1.2,2.674,2.674V222.438z"/>
	</g>
</g>
<g>
</g>
<g>
</g>
<g>
</g>
<g>
</g>
<g>
</g>
<g>
</g>
<g>
</g>
<g>
</g>
<g>
</g>
<g>
</g>
<g>
</g>
<g>
</g>
<g>
</g>
<g>
</g>
<g>
</g>
</svg>
