<?xml version="1.0" encoding="iso-8859-1"?>
<!-- Generator: Adobe Illustrator 21.0.0, SVG Export Plug-In . SVG Version: 6.00 Build 0)  -->
<svg version="1.1" id="Capa_1" xmlns="http://www.w3.org/2000/svg" xmlns:xlink="http://www.w3.org/1999/xlink" x="0px" y="0px"
	 viewBox="0 0 512 512" style="enable-background:new 0 0 512 512;" xml:space="preserve">
<g>
	<g>
		<path d="M454.797,90.048V0H57.203v90.048h40.032v40.506l-40.032,60.049V512h397.594V190.603l-40.032-60.048V90.048H454.797z
			 M424.797,210.144V482H87.203V210.144H424.797z M384.764,120.096H127.235V90.048h257.529V120.096z M391.737,150.096l20.032,30.048
			H100.231l20.032-30.048H391.737z M87.203,60.048V30h337.594v30.048H87.203z"/>
	</g>
</g>
<g>
	<g>
		<path d="M301.024,300.24v-60.096h-90.048v60.096h-60.904v90.048h60.904V452h90.048v-61.712h60.904V300.24H301.024z
			 M331.928,360.288h-60.904V422h-30.048v-61.712h-60.904V330.24h60.904v-60.096h30.048v60.096h60.904V360.288z"/>
	</g>
</g>
<g>
</g>
<g>
</g>
<g>
</g>
<g>
</g>
<g>
</g>
<g>
</g>
<g>
</g>
<g>
</g>
<g>
</g>
<g>
</g>
<g>
</g>
<g>
</g>
<g>
</g>
<g>
</g>
<g>
</g>
</svg>
